<svg xmlns="http://www.w3.org/2000/svg" version="1.1" xmlns:xlink="http://www.w3.org/1999/xlink" xmlns:svgjs="http://svgjs.dev/svgjs" width="1500" height="1500" viewBox="0 0 1500 1500"><rect width="1500" height="1500" fill="#000000"></rect><g transform="matrix(0.6666666666666666,0,0,0.6666666666666666,249.39393939393938,636.0843746980308)"><svg viewBox="0 0 396 90" data-background-color="#000000" preserveAspectRatio="xMidYMid meet" height="340" width="1500" xmlns="http://www.w3.org/2000/svg" xmlns:xlink="http://www.w3.org/1999/xlink"><g id="tight-bounds" transform="matrix(1,0,0,1,0.2400000000000091,0.23120416401715715)"><svg viewBox="0 0 395.52 89.53759167196567" height="89.53759167196567" width="395.52"><g><svg viewBox="0 0 626.586368640596 141.84626421561853" height="89.53759167196567" width="395.52"><g></g><g></g><g transform="matrix(1,0,0,1,231.06636864059595,19.603933766413277)"><svg viewBox="0 0 395.52 102.63839668279198" height="102.63839668279198" width="395.52"><g id="textblocktransform"><svg viewBox="0 0 395.52 102.63839668279198" height="102.63839668279198" width="395.52" id="textblock"><g><svg viewBox="0 0 395.52 102.63839668279198" height="102.63839668279198" width="395.52"><g transform="matrix(1,0,0,1,0,0)"><svg width="395.52" viewBox="2.88 -33.81 180.85 46.940000000000005" height="102.63839668279198" data-palette-color="url(#6eedbf53-883f-495c-bfc2-a44021c57858)"></svg></g></svg></g></svg></g></svg></g><g><svg viewBox="0 0 151.97814023101986 141.84626421561853" height="141.84626421561853" width="151.97814023101986"><g><svg xmlns="http://www.w3.org/2000/svg" xmlns:xlink="http://www.w3.org/1999/xlink" version="1.1" x="0" y="0" viewBox="5.5 7.5 90 84" enable-background="new 0 0 100 100" xml:space="preserve" height="141.84626421561853" width="151.97814023101986" class="icon-icon-0" data-fill-palette-color="accent" id="icon-0"></svg></g></svg></g></svg></g><defs></defs><mask id="3e79c2ea-9008-4b64-a4c4-ffd9d8ecc053"><g id="SvgjsG2228"><svg viewBox="0 0 395.52 89.53759167196567" height="89.53759167196567" width="395.52"><g><svg viewBox="0 0 626.586368640596 141.84626421561853" height="89.53759167196567" width="395.52"><g><rect width="9.256036535679558" height="103.15158866620592" x="176.20860236630665" y="19.347337774706304" fill="white" opacity="1" stroke-width="0" stroke="transparent" fill-opacity="1" class="rect-qz-0" rx="1%" id="SvgjsRect2227" data-palette-color="url(#6eedbf53-883f-495c-bfc2-a44021c57858)"></rect></g><g><rect width="9.256036535679558" height="103.15158866620592" x="197.57986996962958" y="19.347337774706304" fill="white" opacity="1" stroke-width="0" stroke="transparent" fill-opacity="1" class="rect-qz-1" rx="1%" id="SvgjsRect2226" data-palette-color="url(#6eedbf53-883f-495c-bfc2-a44021c57858)"></rect></g><g transform="matrix(1,0,0,1,231.06636864059595,19.603933766413277)"><svg viewBox="0 0 395.52 102.63839668279198" height="102.63839668279198" width="395.52"><g id="SvgjsG2225"><svg viewBox="0 0 395.52 102.63839668279198" height="102.63839668279198" width="395.52" id="SvgjsSvg2224"><g><svg viewBox="0 0 395.52 102.63839668279198" height="102.63839668279198" width="395.52"><g transform="matrix(1,0,0,1,0,0)"><svg width="395.52" viewBox="2.88 -33.81 180.85 46.940000000000005" height="102.63839668279198" data-palette-color="url(#6eedbf53-883f-495c-bfc2-a44021c57858)"><path d="M21.06-24L21.06-21.88 8.06-3.06 21.75-3.06 21.75 0 2.88 0 2.88-2.06 15.75-20.81 2.88-20.81 2.88-24 21.06-24ZM37.19-24.31Q41.94-24.31 44.5-21.47 47.06-18.63 47.06-13.44L47.06-13.44 47.06-11.25 46.81-10.75 30.37-10.75Q30.37-7.69 32.69-5.06L32.69-5.06Q34.87-2.88 39.5-2.88L39.5-2.88Q42.56-2.88 45.31-3.81L45.31-3.81 46.06-0.81Q42.25 0.5 38.37 0.5L38.37 0.5Q32.56 0.5 29.5-2.63 26.43-5.75 26.43-11.56L26.43-11.56Q26.43-17.06 29.12-20.63L29.12-20.63Q32-24.31 37.19-24.31L37.19-24.31ZM42.94-14Q42.94-17.13 41.59-19.13 40.25-21.13 37.62-21.13L37.62-21.13Q34.31-21.13 32.56-19.13 30.81-17.13 30.43-14L30.43-14 42.94-14ZM55-28.63Q53.87-28.63 53.12-29.41 52.37-30.19 52.37-31.25L52.37-31.25Q52.37-32.25 53.12-33.03 53.87-33.81 55-33.81L55-33.81Q56.06-33.81 56.81-33.03 57.56-32.25 57.56-31.25L57.56-31.25Q57.56-30.19 56.84-29.41 56.12-28.63 55-28.63L55-28.63ZM57-24L57 0 52.93 0 52.93-24 57-24ZM72.37 0.5Q68.74 0.5 67.21-1.47 65.68-3.44 65.68-7.44L65.68-7.44 65.68-20.63 61.62-20.63 61.62-24 65.68-24 65.68-29.88 69.74-30.19 69.74-24 77.62-24 77.62-20.63 69.74-20.63 69.74-7.69Q69.74-5.19 70.52-4.06 71.31-2.94 73.56-2.94L73.56-2.94Q75.68-2.94 77.37-3.31L77.37-3.31 78.06-0.56Q75.24 0.5 72.37 0.5L72.37 0.5ZM98.87-1.13Q95.74 0.5 92.55 0.5L92.55 0.5Q86.8 0.5 83.74-3.94L83.74-3.94Q81.55-7.19 81.55-11.56L81.55-11.56Q81.55-16 83.46-19.09 85.37-22.19 88.74-23.56L88.74-23.56Q90.3-24.31 92.8-24.31L92.8-24.31Q95.74-24.31 98.43-23.06L98.43-23.06 99.62-22.5 100.05-24 102.99-24 102.99 1.13Q102.99 4.44 102.24 6.44 101.49 8.44 99.68 10.13L99.68 10.13Q98.18 11.56 95.96 12.34 93.74 13.13 90.99 13.13L90.99 13.13Q89.24 13.13 87.21 12.69 85.18 12.25 83.68 11.56L83.68 11.56 84.74 8.69Q88.3 9.94 90.43 9.94L90.43 9.94Q94.18 9.94 96.3 8.13 98.43 6.31 98.8 3L98.8 3Q98.87 2.31 98.87-0.5L98.87-0.5 98.87-1.13ZM93.49-2.81Q96.62-2.81 98.87-4.13L98.87-4.13 98.87-19.81Q96.05-21.06 93.3-21.06L93.3-21.06Q89.55-21.06 87.62-18.63 85.68-16.19 85.68-12.13L85.68-12.13Q85.68-9.19 86.8-6.94 87.93-4.69 89.87-3.69L89.87-3.69Q91.43-2.81 93.49-2.81L93.49-2.81ZM119.74-24.31Q124.49-24.31 127.05-21.47 129.61-18.63 129.61-13.44L129.61-13.44 129.61-11.25 129.36-10.75 112.93-10.75Q112.93-7.69 115.24-5.06L115.24-5.06Q117.43-2.88 122.05-2.88L122.05-2.88Q125.11-2.88 127.86-3.81L127.86-3.81 128.61-0.81Q124.8 0.5 120.93 0.5L120.93 0.5Q115.11 0.5 112.05-2.63 108.99-5.75 108.99-11.56L108.99-11.56Q108.99-17.06 111.68-20.63L111.68-20.63Q114.55-24.31 119.74-24.31L119.74-24.31ZM125.49-14Q125.49-17.13 124.14-19.13 122.8-21.13 120.18-21.13L120.18-21.13Q116.86-21.13 115.11-19.13 113.36-17.13 112.99-14L112.99-14 125.49-14ZM137.55-28.63Q136.42-28.63 135.67-29.41 134.92-30.19 134.92-31.25L134.92-31.25Q134.92-32.25 135.67-33.03 136.42-33.81 137.55-33.81L137.55-33.81Q138.61-33.81 139.36-33.03 140.11-32.25 140.11-31.25L140.11-31.25Q140.11-30.19 139.39-29.41 138.67-28.63 137.55-28.63L137.55-28.63ZM139.55-24L139.55 0 135.49 0 135.49-24 139.55-24ZM154.23-2.88Q156.42-2.88 157.95-3.72 159.48-4.56 159.48-6.19L159.48-6.19Q159.48-7.5 158.36-8.25 157.23-9 153.61-10.5L153.61-10.5 151.23-11.44Q149.67-12.19 148.67-12.78 147.67-13.38 146.86-14.59 146.05-15.81 146.05-17.69L146.05-17.69Q146.05-21.06 148.83-22.69 151.61-24.31 155.67-24.31L155.67-24.31Q159.11-24.31 162.55-22.75L162.55-22.75 161.55-19.75Q158.73-20.94 156.11-20.94L156.11-20.94Q153.42-20.94 151.76-20.16 150.11-19.38 150.11-17.94L150.11-17.94Q150.11-16.5 151.26-15.69 152.42-14.88 155.23-13.81L155.23-13.81 157.3-13Q160.73-11.56 162.11-10 163.48-8.44 163.48-5.88L163.48-5.88Q163.48-3.25 161.05-1.34 158.61 0.56 154.55 0.56L154.55 0.56Q149.92 0.56 145.42-1.25L145.42-1.25 146.55-4.31Q150.61-2.88 154.23-2.88L154.23-2.88ZM178.04 0.5Q174.42 0.5 172.89-1.47 171.36-3.44 171.36-7.44L171.36-7.44 171.36-20.63 167.29-20.63 167.29-24 171.36-24 171.36-29.88 175.42-30.19 175.42-24 183.29-24 183.29-20.63 175.42-20.63 175.42-7.69Q175.42-5.19 176.2-4.06 176.98-2.94 179.23-2.94L179.23-2.94Q181.36-2.94 183.04-3.31L183.04-3.31 183.73-0.56Q180.92 0.5 178.04 0.5L178.04 0.5Z" opacity="1" transform="matrix(1,0,0,1,0,0)" fill="white" class="wordmark-text-0" id="SvgjsPath2223"></path></svg></g></svg></g></svg></g></svg></g><g><svg viewBox="0 0 151.97814023101986 141.84626421561853" height="141.84626421561853" width="151.97814023101986"><g><svg xmlns="http://www.w3.org/2000/svg" xmlns:xlink="http://www.w3.org/1999/xlink" version="1.1" x="0" y="0" viewBox="5.5 7.5 90 84" enable-background="new 0 0 100 100" xml:space="preserve" height="141.84626421561853" width="151.97814023101986" class="icon-icon-0" data-fill-palette-color="accent" id="SvgjsSvg2222"><g fill="black"><polygon points="43.5,29.609 43.39,29.5 41.976,29.5 43.5,31.031  " fill="black"></polygon><polygon points="43.5,38.145 34.906,29.5 33.491,29.5 43.5,39.566  " fill="black"></polygon><polygon points="36.76,65.5 5.5,34.063 5.5,35.484 35.346,65.5  " fill="black"></polygon><polygon points="33.932,65.5 5.5,36.906 5.5,38.328 32.518,65.5  " fill="black"></polygon><polygon points="43.5,55.213 17.935,29.5 16.521,29.5 43.5,56.635  " fill="black"></polygon><polygon points="43.5,35.299 37.734,29.5 36.32,29.5 43.5,36.721  " fill="black"></polygon><polygon points="42.417,65.5 6.621,29.5 5.5,29.5 5.5,29.795 41.002,65.5  " fill="black"></polygon><polygon points="43.5,40.988 32.077,29.5 30.663,29.5 43.5,42.41  " fill="black"></polygon><polygon points="43.5,32.455 40.562,29.5 39.148,29.5 43.5,33.877  " fill="black"></polygon><polygon points="14.134,65.5 5.5,56.799 5.5,58.221 12.721,65.5  " fill="black"></polygon><polygon points="43.5,58.057 15.106,29.5 13.692,29.5 43.5,59.479  " fill="black"></polygon><polygon points="8.035,29.5 43.5,65.168 43.5,63.744 9.449,29.5  " fill="black"></polygon><polygon points="43.5,60.9 12.278,29.5 10.863,29.5 43.5,62.322  " fill="black"></polygon><polygon points="39.588,65.5 5.5,31.219 5.5,32.641 38.174,65.5  " fill="black"></polygon><polygon points="22.616,65.5 5.5,48.281 5.5,49.699 21.202,65.5  " fill="black"></polygon><polygon points="25.445,65.5 5.5,45.439 5.5,46.861 24.031,65.5  " fill="black"></polygon><polygon points="43.5,43.834 29.248,29.5 27.834,29.5 43.5,45.256  " fill="black"></polygon><polygon points="43.5,49.523 23.591,29.5 22.177,29.5 43.5,50.945  " fill="black"></polygon><polygon points="16.961,65.5 5.5,53.957 5.5,55.377 15.548,65.5  " fill="black"></polygon><polygon points="19.789,65.5 5.5,51.119 5.5,52.537 18.375,65.5  " fill="black"></polygon><polygon points="43.5,52.367 20.763,29.5 19.349,29.5 43.5,53.789  " fill="black"></polygon><polygon points="11.307,65.5 5.5,59.643 5.5,61.066 9.893,65.5  " fill="black"></polygon><polygon points="8.479,65.5 5.5,62.492 5.5,63.918 7.065,65.5  " fill="black"></polygon><polygon points="31.104,65.5 5.5,39.75 5.5,41.174 29.689,65.5  " fill="black"></polygon><polygon points="28.273,65.5 5.5,42.596 5.5,44.018 26.859,65.5  " fill="black"></polygon><polygon points="43.5,46.678 26.42,29.5 25.006,29.5 43.5,48.1  " fill="black"></polygon><rect x="5.5" y="17.5" width="67" height="6" fill="black"></rect><rect x="49.5" y="29.5" width="46" height="4" fill="black"></rect><rect x="5.5" y="87.5" width="45" height="4" fill="black"></rect><rect x="5.5" y="71.5" width="83" height="4" fill="black"></rect><rect x="5.5" y="79.5" width="90" height="4" fill="black"></rect><rect x="49.5" y="53.5" width="46" height="4" fill="black"></rect><rect x="49.5" y="37.5" width="29" height="4" fill="black"></rect><rect x="49.5" y="61.5" width="29" height="4" fill="black"></rect><rect x="49.5" y="45.5" width="39" height="4" fill="black"></rect><rect x="5.5" y="7.5" width="90" height="6" fill="black"></rect></g></svg></g></svg></g></svg></g><defs><mask></mask></defs></svg><rect width="395.52" height="89.53759167196567" fill="black" stroke="none" visibility="hidden"></rect></g></mask><linearGradient x1="0" x2="1" y1="0.578" y2="0.595" id="6eedbf53-883f-495c-bfc2-a44021c57858"><stop stop-color="#6ee2f5" offset="0"></stop><stop stop-color="#6454f0" offset="1"></stop></linearGradient><rect width="395.52" height="89.53759167196567" fill="url(#6eedbf53-883f-495c-bfc2-a44021c57858)" mask="url(#3e79c2ea-9008-4b64-a4c4-ffd9d8ecc053)" data-fill-palette-color="primary"></rect><mask id="800e3ba7-c577-43d7-9786-b71e52f0309a"><g id="SvgjsG2251"><svg viewBox="0 0 395.52 89.53759167196567" height="89.53759167196567" width="395.52"><g><svg viewBox="0 0 626.586368640596 141.84626421561853" height="89.53759167196567" width="395.52"><g></g><g></g><g transform="matrix(1,0,0,1,231.06636864059595,19.603933766413277)"><svg viewBox="0 0 395.52 102.63839668279198" height="102.63839668279198" width="395.52"><g id="SvgjsG2250"><svg viewBox="0 0 395.52 102.63839668279198" height="102.63839668279198" width="395.52" id="SvgjsSvg2249"><g><svg viewBox="0 0 395.52 102.63839668279198" height="102.63839668279198" width="395.52"><g transform="matrix(1,0,0,1,0,0)"><svg width="395.52" viewBox="2.88 -33.81 180.85 46.940000000000005" height="102.63839668279198" data-palette-color="url(#6eedbf53-883f-495c-bfc2-a44021c57858)"></svg></g></svg></g></svg></g></svg></g><g><svg viewBox="0 0 151.97814023101986 141.84626421561853" height="141.84626421561853" width="151.97814023101986"><g><svg xmlns="http://www.w3.org/2000/svg" xmlns:xlink="http://www.w3.org/1999/xlink" version="1.1" x="0" y="0" viewBox="5.5 7.5 90 84" enable-background="new 0 0 100 100" xml:space="preserve" height="141.84626421561853" width="151.97814023101986" class="icon-icon-0" data-fill-palette-color="accent" id="SvgjsSvg2248"><g fill="white"><polygon points="43.5,29.609 43.39,29.5 41.976,29.5 43.5,31.031  " fill="white"></polygon><polygon points="43.5,38.145 34.906,29.5 33.491,29.5 43.5,39.566  " fill="white"></polygon><polygon points="36.76,65.5 5.5,34.063 5.5,35.484 35.346,65.5  " fill="white"></polygon><polygon points="33.932,65.5 5.5,36.906 5.5,38.328 32.518,65.5  " fill="white"></polygon><polygon points="43.5,55.213 17.935,29.5 16.521,29.5 43.5,56.635  " fill="white"></polygon><polygon points="43.5,35.299 37.734,29.5 36.32,29.5 43.5,36.721  " fill="white"></polygon><polygon points="42.417,65.5 6.621,29.5 5.5,29.5 5.5,29.795 41.002,65.5  " fill="white"></polygon><polygon points="43.5,40.988 32.077,29.5 30.663,29.5 43.5,42.41  " fill="white"></polygon><polygon points="43.5,32.455 40.562,29.5 39.148,29.5 43.5,33.877  " fill="white"></polygon><polygon points="14.134,65.5 5.5,56.799 5.5,58.221 12.721,65.5  " fill="white"></polygon><polygon points="43.5,58.057 15.106,29.5 13.692,29.5 43.5,59.479  " fill="white"></polygon><polygon points="8.035,29.5 43.5,65.168 43.5,63.744 9.449,29.5  " fill="white"></polygon><polygon points="43.5,60.9 12.278,29.5 10.863,29.5 43.5,62.322  " fill="white"></polygon><polygon points="39.588,65.5 5.5,31.219 5.5,32.641 38.174,65.5  " fill="white"></polygon><polygon points="22.616,65.5 5.5,48.281 5.5,49.699 21.202,65.5  " fill="white"></polygon><polygon points="25.445,65.5 5.5,45.439 5.5,46.861 24.031,65.5  " fill="white"></polygon><polygon points="43.5,43.834 29.248,29.5 27.834,29.5 43.5,45.256  " fill="white"></polygon><polygon points="43.5,49.523 23.591,29.5 22.177,29.5 43.5,50.945  " fill="white"></polygon><polygon points="16.961,65.5 5.5,53.957 5.5,55.377 15.548,65.5  " fill="white"></polygon><polygon points="19.789,65.5 5.5,51.119 5.5,52.537 18.375,65.5  " fill="white"></polygon><polygon points="43.5,52.367 20.763,29.5 19.349,29.5 43.5,53.789  " fill="white"></polygon><polygon points="11.307,65.5 5.5,59.643 5.5,61.066 9.893,65.5  " fill="white"></polygon><polygon points="8.479,65.5 5.5,62.492 5.5,63.918 7.065,65.5  " fill="white"></polygon><polygon points="31.104,65.5 5.5,39.75 5.5,41.174 29.689,65.5  " fill="white"></polygon><polygon points="28.273,65.5 5.5,42.596 5.5,44.018 26.859,65.5  " fill="white"></polygon><polygon points="43.5,46.678 26.42,29.5 25.006,29.5 43.5,48.1  " fill="white"></polygon><rect x="5.5" y="17.5" width="67" height="6" fill="white"></rect><rect x="49.5" y="29.5" width="46" height="4" fill="white"></rect><rect x="5.5" y="87.5" width="45" height="4" fill="white"></rect><rect x="5.5" y="71.5" width="83" height="4" fill="white"></rect><rect x="5.5" y="79.5" width="90" height="4" fill="white"></rect><rect x="49.5" y="53.5" width="46" height="4" fill="white"></rect><rect x="49.5" y="37.5" width="29" height="4" fill="white"></rect><rect x="49.5" y="61.5" width="29" height="4" fill="white"></rect><rect x="49.5" y="45.5" width="39" height="4" fill="white"></rect><rect x="5.5" y="7.5" width="90" height="6" fill="white"></rect></g></svg></g></svg></g></svg></g><defs><mask></mask></defs><mask><g id="SvgjsG2247"><svg viewBox="0 0 395.52 89.53759167196567" height="89.53759167196567" width="395.52"><g><svg viewBox="0 0 626.586368640596 141.84626421561853" height="89.53759167196567" width="395.52"><g><rect width="9.256036535679558" height="103.15158866620592" x="176.20860236630665" y="19.347337774706304" fill="black" opacity="1" stroke-width="0" stroke="transparent" fill-opacity="1" class="rect-qz-0" rx="1%" id="SvgjsRect2246" data-palette-color="url(#6eedbf53-883f-495c-bfc2-a44021c57858)"></rect></g><g><rect width="9.256036535679558" height="103.15158866620592" x="197.57986996962958" y="19.347337774706304" fill="black" opacity="1" stroke-width="0" stroke="transparent" fill-opacity="1" class="rect-qz-1" rx="1%" id="SvgjsRect2245" data-palette-color="url(#6eedbf53-883f-495c-bfc2-a44021c57858)"></rect></g><g transform="matrix(1,0,0,1,231.06636864059595,19.603933766413277)"><svg viewBox="0 0 395.52 102.63839668279198" height="102.63839668279198" width="395.52"><g id="SvgjsG2244"><svg viewBox="0 0 395.52 102.63839668279198" height="102.63839668279198" width="395.52" id="SvgjsSvg2243"><g><svg viewBox="0 0 395.52 102.63839668279198" height="102.63839668279198" width="395.52"><g transform="matrix(1,0,0,1,0,0)"><svg width="395.52" viewBox="2.88 -33.81 180.85 46.940000000000005" height="102.63839668279198" data-palette-color="url(#6eedbf53-883f-495c-bfc2-a44021c57858)"><path d="M21.06-24L21.06-21.88 8.06-3.06 21.75-3.06 21.75 0 2.88 0 2.88-2.06 15.75-20.81 2.88-20.81 2.88-24 21.06-24ZM37.19-24.31Q41.94-24.31 44.5-21.47 47.06-18.63 47.06-13.44L47.06-13.44 47.06-11.25 46.81-10.75 30.37-10.75Q30.37-7.69 32.69-5.06L32.69-5.06Q34.87-2.88 39.5-2.88L39.5-2.88Q42.56-2.88 45.31-3.81L45.31-3.81 46.06-0.81Q42.25 0.5 38.37 0.5L38.37 0.5Q32.56 0.5 29.5-2.63 26.43-5.75 26.43-11.56L26.43-11.56Q26.43-17.06 29.12-20.63L29.12-20.63Q32-24.31 37.19-24.31L37.19-24.31ZM42.94-14Q42.94-17.13 41.59-19.13 40.25-21.13 37.62-21.13L37.62-21.13Q34.31-21.13 32.56-19.13 30.81-17.13 30.43-14L30.43-14 42.94-14ZM55-28.63Q53.87-28.63 53.12-29.41 52.37-30.19 52.37-31.25L52.37-31.25Q52.37-32.25 53.12-33.03 53.87-33.81 55-33.81L55-33.81Q56.06-33.81 56.81-33.03 57.56-32.25 57.56-31.25L57.56-31.25Q57.56-30.19 56.84-29.41 56.12-28.63 55-28.63L55-28.63ZM57-24L57 0 52.93 0 52.93-24 57-24ZM72.37 0.5Q68.74 0.5 67.21-1.47 65.68-3.44 65.68-7.44L65.68-7.44 65.68-20.63 61.62-20.63 61.62-24 65.68-24 65.68-29.88 69.74-30.19 69.74-24 77.62-24 77.62-20.63 69.74-20.63 69.74-7.69Q69.74-5.19 70.52-4.06 71.31-2.94 73.56-2.94L73.56-2.94Q75.68-2.94 77.37-3.31L77.37-3.31 78.06-0.56Q75.24 0.5 72.37 0.5L72.37 0.5ZM98.87-1.13Q95.74 0.5 92.55 0.5L92.55 0.5Q86.8 0.5 83.74-3.94L83.74-3.94Q81.55-7.19 81.55-11.56L81.55-11.56Q81.55-16 83.46-19.09 85.37-22.19 88.74-23.56L88.74-23.56Q90.3-24.31 92.8-24.31L92.8-24.31Q95.74-24.31 98.43-23.06L98.43-23.06 99.62-22.5 100.05-24 102.99-24 102.99 1.13Q102.99 4.44 102.24 6.44 101.49 8.44 99.68 10.13L99.68 10.13Q98.18 11.56 95.96 12.34 93.74 13.13 90.99 13.13L90.99 13.13Q89.24 13.13 87.21 12.69 85.18 12.25 83.68 11.56L83.68 11.56 84.74 8.69Q88.3 9.94 90.43 9.94L90.43 9.94Q94.18 9.94 96.3 8.13 98.43 6.31 98.8 3L98.8 3Q98.87 2.31 98.87-0.5L98.87-0.5 98.87-1.13ZM93.49-2.81Q96.62-2.81 98.87-4.13L98.87-4.13 98.87-19.81Q96.05-21.06 93.3-21.06L93.3-21.06Q89.55-21.06 87.62-18.63 85.68-16.19 85.68-12.13L85.68-12.13Q85.68-9.19 86.8-6.94 87.93-4.69 89.87-3.69L89.87-3.69Q91.43-2.81 93.49-2.81L93.49-2.81ZM119.74-24.31Q124.49-24.31 127.05-21.47 129.61-18.63 129.61-13.44L129.61-13.44 129.61-11.25 129.36-10.75 112.93-10.75Q112.93-7.69 115.24-5.06L115.24-5.06Q117.43-2.88 122.05-2.88L122.05-2.88Q125.11-2.88 127.86-3.81L127.86-3.81 128.61-0.81Q124.8 0.5 120.93 0.5L120.93 0.5Q115.11 0.5 112.05-2.63 108.99-5.75 108.99-11.56L108.99-11.56Q108.99-17.06 111.68-20.63L111.68-20.63Q114.55-24.31 119.74-24.31L119.74-24.31ZM125.49-14Q125.49-17.13 124.14-19.13 122.8-21.13 120.18-21.13L120.18-21.13Q116.86-21.13 115.11-19.13 113.36-17.13 112.99-14L112.99-14 125.49-14ZM137.55-28.63Q136.42-28.63 135.67-29.41 134.92-30.19 134.92-31.25L134.92-31.25Q134.92-32.25 135.67-33.03 136.42-33.81 137.55-33.81L137.55-33.81Q138.61-33.81 139.36-33.03 140.11-32.25 140.11-31.25L140.11-31.25Q140.11-30.19 139.39-29.41 138.67-28.63 137.55-28.63L137.55-28.63ZM139.55-24L139.55 0 135.49 0 135.49-24 139.55-24ZM154.23-2.88Q156.42-2.88 157.95-3.72 159.48-4.56 159.48-6.19L159.48-6.19Q159.48-7.5 158.36-8.25 157.23-9 153.61-10.5L153.61-10.5 151.23-11.44Q149.67-12.19 148.67-12.78 147.67-13.38 146.86-14.59 146.05-15.81 146.05-17.69L146.05-17.69Q146.05-21.06 148.83-22.69 151.61-24.31 155.67-24.31L155.67-24.31Q159.11-24.31 162.55-22.75L162.55-22.75 161.55-19.75Q158.73-20.94 156.11-20.94L156.11-20.94Q153.42-20.94 151.76-20.16 150.11-19.38 150.11-17.94L150.11-17.94Q150.11-16.5 151.26-15.69 152.42-14.88 155.23-13.81L155.23-13.81 157.3-13Q160.73-11.56 162.11-10 163.48-8.44 163.48-5.88L163.48-5.88Q163.48-3.25 161.05-1.34 158.61 0.56 154.55 0.56L154.55 0.56Q149.92 0.56 145.42-1.25L145.42-1.25 146.55-4.31Q150.61-2.88 154.23-2.88L154.23-2.88ZM178.04 0.5Q174.42 0.5 172.89-1.47 171.36-3.44 171.36-7.44L171.36-7.44 171.36-20.63 167.29-20.63 167.29-24 171.36-24 171.36-29.88 175.42-30.19 175.42-24 183.29-24 183.29-20.63 175.42-20.63 175.42-7.69Q175.42-5.19 176.2-4.06 176.98-2.94 179.23-2.94L179.23-2.94Q181.36-2.94 183.04-3.31L183.04-3.31 183.73-0.56Q180.92 0.5 178.04 0.5L178.04 0.5Z" opacity="1" transform="matrix(1,0,0,1,0,0)" fill="black" class="wordmark-text-0" id="SvgjsPath2242"></path></svg></g></svg></g></svg></g></svg></g><g><svg viewBox="0 0 151.97814023101986 141.84626421561853" height="141.84626421561853" width="151.97814023101986"><g><svg xmlns="http://www.w3.org/2000/svg" xmlns:xlink="http://www.w3.org/1999/xlink" version="1.1" x="0" y="0" viewBox="5.5 7.5 90 84" enable-background="new 0 0 100 100" xml:space="preserve" height="141.84626421561853" width="151.97814023101986" class="icon-icon-0" data-fill-palette-color="accent" id="SvgjsSvg2241"><g fill="black"><polygon points="43.5,29.609 43.39,29.5 41.976,29.5 43.5,31.031  " fill="black"></polygon><polygon points="43.5,38.145 34.906,29.5 33.491,29.5 43.5,39.566  " fill="black"></polygon><polygon points="36.76,65.5 5.5,34.063 5.5,35.484 35.346,65.5  " fill="black"></polygon><polygon points="33.932,65.5 5.5,36.906 5.5,38.328 32.518,65.5  " fill="black"></polygon><polygon points="43.5,55.213 17.935,29.5 16.521,29.5 43.5,56.635  " fill="black"></polygon><polygon points="43.5,35.299 37.734,29.5 36.32,29.5 43.5,36.721  " fill="black"></polygon><polygon points="42.417,65.5 6.621,29.5 5.5,29.5 5.5,29.795 41.002,65.5  " fill="black"></polygon><polygon points="43.5,40.988 32.077,29.5 30.663,29.5 43.5,42.41  " fill="black"></polygon><polygon points="43.5,32.455 40.562,29.5 39.148,29.5 43.5,33.877  " fill="black"></polygon><polygon points="14.134,65.5 5.5,56.799 5.5,58.221 12.721,65.5  " fill="black"></polygon><polygon points="43.5,58.057 15.106,29.5 13.692,29.5 43.5,59.479  " fill="black"></polygon><polygon points="8.035,29.5 43.5,65.168 43.5,63.744 9.449,29.5  " fill="black"></polygon><polygon points="43.5,60.9 12.278,29.5 10.863,29.5 43.5,62.322  " fill="black"></polygon><polygon points="39.588,65.5 5.5,31.219 5.5,32.641 38.174,65.5  " fill="black"></polygon><polygon points="22.616,65.5 5.5,48.281 5.5,49.699 21.202,65.5  " fill="black"></polygon><polygon points="25.445,65.5 5.5,45.439 5.5,46.861 24.031,65.5  " fill="black"></polygon><polygon points="43.5,43.834 29.248,29.5 27.834,29.5 43.5,45.256  " fill="black"></polygon><polygon points="43.5,49.523 23.591,29.5 22.177,29.5 43.5,50.945  " fill="black"></polygon><polygon points="16.961,65.5 5.5,53.957 5.5,55.377 15.548,65.5  " fill="black"></polygon><polygon points="19.789,65.5 5.5,51.119 5.5,52.537 18.375,65.5  " fill="black"></polygon><polygon points="43.5,52.367 20.763,29.5 19.349,29.5 43.5,53.789  " fill="black"></polygon><polygon points="11.307,65.5 5.5,59.643 5.5,61.066 9.893,65.5  " fill="black"></polygon><polygon points="8.479,65.5 5.5,62.492 5.5,63.918 7.065,65.5  " fill="black"></polygon><polygon points="31.104,65.5 5.5,39.75 5.5,41.174 29.689,65.5  " fill="black"></polygon><polygon points="28.273,65.5 5.5,42.596 5.5,44.018 26.859,65.5  " fill="black"></polygon><polygon points="43.5,46.678 26.42,29.5 25.006,29.5 43.5,48.1  " fill="black"></polygon><rect x="5.5" y="17.5" width="67" height="6" fill="black"></rect><rect x="49.5" y="29.5" width="46" height="4" fill="black"></rect><rect x="5.5" y="87.5" width="45" height="4" fill="black"></rect><rect x="5.5" y="71.5" width="83" height="4" fill="black"></rect><rect x="5.5" y="79.5" width="90" height="4" fill="black"></rect><rect x="49.5" y="53.5" width="46" height="4" fill="black"></rect><rect x="49.5" y="37.5" width="29" height="4" fill="black"></rect><rect x="49.5" y="61.5" width="29" height="4" fill="black"></rect><rect x="49.5" y="45.5" width="39" height="4" fill="black"></rect><rect x="5.5" y="7.5" width="90" height="6" fill="black"></rect></g></svg></g></svg></g></svg></g><defs><mask></mask></defs></svg><rect width="395.52" height="89.53759167196567" fill="black" stroke="none" visibility="hidden"></rect></g></mask></svg><rect width="395.52" height="89.53759167196567" fill="black" stroke="none" visibility="hidden"></rect></g></mask><linearGradient x1="0" x2="1" y1="0.578" y2="0.595" id="3beb85f8-d9ed-4b4c-aeec-e9a323c71932"><stop stop-color="#6ee2f5" offset="0"></stop><stop stop-color="#6454f0" offset="1"></stop></linearGradient><rect width="395.52" height="89.53759167196567" fill="url(#3beb85f8-d9ed-4b4c-aeec-e9a323c71932)" mask="url(#800e3ba7-c577-43d7-9786-b71e52f0309a)" data-fill-palette-color="accent"></rect></svg><rect width="395.52" height="89.53759167196567" fill="none" stroke="none" visibility="hidden"></rect></g></svg></g></svg>